REM DIRINDEX 1\2\5,1\2\6,1\2\7,1\2\8,1\3\9,1\3\10,1\3\11,1\4\12,1\4\13,1\4\14,1\4\15,1\4\16
REM DIRNAME cjc034,folder01,folder02,folder03,folder04,folder05,folder06,folder07,folder08,folder09,folder10,folder11,folder12,folder13,folder14,folder15
TITLE ""
FILE "1200_sec04_1350_1357.mp3" MP3
  TRACK 01 AUDIO
    TITLE "0:"
    INDEX 01 00:00:00
  TRACK 02 AUDIO
    TITLE "16:cjc034_09129"
    INDEX 01 00:00:19
  TRACK 03 AUDIO
    TITLE "0:"
    INDEX 01 00:04:17
  TRACK 04 AUDIO
    TITLE "12:cjc034_09130"
    INDEX 01 00:05:12
  TRACK 05 AUDIO
    TITLE "0:"
    INDEX 01 00:06:24
  TRACK 06 AUDIO
    TITLE "13:cjc034_09131"
    INDEX 01 00:06:57
  TRACK 07 AUDIO
    TITLE "0:"
    INDEX 01 00:10:12
  TRACK 08 AUDIO
    TITLE "14:cjc034_09132"
    INDEX 01 00:10:43
  TRACK 09 AUDIO
    TITLE "0:"
    INDEX 01 00:11:52
  TRACK 10 AUDIO
    TITLE "15:cjc034_09133"
    INDEX 01 00:12:09
  TRACK 11 AUDIO
    TITLE "0:"
    INDEX 01 00:16:69
  TRACK 12 AUDIO
    TITLE "12:cjc034_09134"
    INDEX 01 00:18:29
  TRACK 13 AUDIO
    TITLE "0:"
    INDEX 01 00:19:36
  TRACK 14 AUDIO
    TITLE "13:cjc034_09135"
    INDEX 01 00:19:69
  TRACK 15 AUDIO
    TITLE "0:"
    INDEX 01 00:23:16
  TRACK 16 AUDIO
    TITLE "14:cjc034_09136"
    INDEX 01 00:23:48
  TRACK 17 AUDIO
    TITLE "0:"
    INDEX 01 00:24:57
  TRACK 18 AUDIO
    TITLE "15:cjc034_09137"
    INDEX 01 00:25:15
  TRACK 19 AUDIO
    TITLE "0:"
    INDEX 01 00:29:74
  TRACK 20 AUDIO
    TITLE "16:cjc034_09138"
    INDEX 01 00:31:29
  TRACK 21 AUDIO
    TITLE "0:"
    INDEX 01 00:35:21
  TRACK 22 AUDIO
    TITLE "12:cjc034_09139"
    INDEX 01 00:36:27
  TRACK 23 AUDIO
    TITLE "0:"
    INDEX 01 00:37:40
  TRACK 24 AUDIO
    TITLE "13:cjc034_09140"
    INDEX 01 00:37:71
  TRACK 25 AUDIO
    TITLE "0:"
    INDEX 01 00:42:61
  TRACK 26 AUDIO
    TITLE "14:cjc034_09141"
    INDEX 01 00:43:19
  TRACK 27 AUDIO
    TITLE "0:"
    INDEX 01 00:44:30
  TRACK 28 AUDIO
    TITLE "15:cjc034_09142"
    INDEX 01 00:44:63
  TRACK 29 AUDIO
    TITLE "0:"
    INDEX 01 00:48:73
  TRACK 30 AUDIO
    TITLE "12:cjc034_09143"
    INDEX 01 00:50:33
  TRACK 31 AUDIO
    TITLE "0:"
    INDEX 01 00:51:60
  TRACK 32 AUDIO
    TITLE "13:cjc034_09144"
    INDEX 01 00:52:16
  TRACK 33 AUDIO
    TITLE "0:"
    INDEX 01 00:54:72
  TRACK 34 AUDIO
    TITLE "14:cjc034_09145"
    INDEX 01 00:55:32
  TRACK 35 AUDIO
    TITLE "0:"
    INDEX 01 00:56:57
  TRACK 36 AUDIO
    TITLE "15:cjc034_09146"
    INDEX 01 00:57:15
  TRACK 37 AUDIO
    TITLE "0:"
    INDEX 01 01:00:37
  TRACK 38 AUDIO
    TITLE "16:cjc034_09147"
    INDEX 01 01:01:72
  TRACK 39 AUDIO
    TITLE "0:"
    INDEX 01 01:06:69
  TRACK 40 AUDIO
    TITLE "12:cjc034_09148"
    INDEX 01 01:07:70
  TRACK 41 AUDIO
    TITLE "0:"
    INDEX 01 01:09:12
  TRACK 42 AUDIO
    TITLE "13:cjc034_09149"
    INDEX 01 01:09:44
  TRACK 43 AUDIO
    TITLE "0:"
    INDEX 01 01:12:07
  TRACK 44 AUDIO
    TITLE "14:cjc034_09150"
    INDEX 01 01:12:38
  TRACK 45 AUDIO
    TITLE "0:"
    INDEX 01 01:13:51
  TRACK 46 AUDIO
    TITLE "15:cjc034_09151"
    INDEX 01 01:14:10
  TRACK 47 AUDIO
    TITLE "0:"
    INDEX 01 01:17:57
  TRACK 48 AUDIO
    TITLE "12:cjc034_09152"
    INDEX 01 01:19:15
  TRACK 49 AUDIO
    TITLE "0:"
    INDEX 01 01:20:40
  TRACK 50 AUDIO
    TITLE "13:cjc034_09153"
    INDEX 01 01:20:73
  TRACK 51 AUDIO
    TITLE "0:"
    INDEX 01 01:24:39
  TRACK 52 AUDIO
    TITLE "14:cjc034_09154"
    INDEX 01 01:25:00
  TRACK 53 AUDIO
    TITLE "0:"
    INDEX 01 01:26:21
  TRACK 54 AUDIO
    TITLE "15:cjc034_09155"
    INDEX 01 01:26:56
  TRACK 55 AUDIO
    TITLE "0:"
    INDEX 01 01:30:34
  TRACK 56 AUDIO
    TITLE "12:cjc034_09156"
    INDEX 01 01:31:71
  TRACK 57 AUDIO
    TITLE "0:"
    INDEX 01 01:33:25
  TRACK 58 AUDIO
    TITLE "13:cjc034_09157"
    INDEX 01 01:33:58
  TRACK 59 AUDIO
    TITLE "0:"
    INDEX 01 01:35:12
  TRACK 60 AUDIO
    TITLE "14:cjc034_09158"
    INDEX 01 01:35:49
  TRACK 61 AUDIO
    TITLE "0:"
    INDEX 01 01:37:01
  TRACK 62 AUDIO
    TITLE "15:cjc034_09159"
    INDEX 01 01:37:36
  TRACK 63 AUDIO
    TITLE "0:"
    INDEX 01 01:42:06
  TRACK 64 AUDIO
    TITLE "12:cjc034_09160"
    INDEX 01 01:43:39
  TRACK 65 AUDIO
    TITLE "0:"
    INDEX 01 01:45:04
  TRACK 66 AUDIO
    TITLE "13:cjc034_09161"
    INDEX 01 01:45:34
  TRACK 67 AUDIO
    TITLE "0:"
    INDEX 01 01:46:37
  TRACK 68 AUDIO
    TITLE "14:cjc034_09162"
    INDEX 01 01:46:68
  TRACK 69 AUDIO
    TITLE "0:"
    INDEX 01 01:48:30
  TRACK 70 AUDIO
    TITLE "15:cjc034_09163"
    INDEX 01 01:48:63
  TRACK 71 AUDIO
    TITLE "0:"
    INDEX 01 01:54:42
